<mxfile host="drawio-plugin" modified="2023-03-26T08:56:23.794Z" agent="5.0 (Macintosh; Intel Mac OS X 10_15_7) AppleWebKit/537.36 (KHTML, like Gecko) Chrome/98.0.4758.102 Safari/537.36" etag="ivOtDyBhV1qcIZRFp-BA" version="20.5.3" type="embed"><diagram id="C5RBs43oDa-KdzZeNtuy" name="Page-1"><mxGraphModel dx="866" dy="815" grid="1" gridSize="10" guides="1" tooltips="1" connect="1" arrows="1" fold="1" page="1" pageScale="1" pageWidth="4000" pageHeight="4000" background="#FFFFFF" math="0" shadow="0"><root><mxCell id="WIyWlLk6GJQsqaUBKTNV-0"/><mxCell id="WIyWlLk6GJQsqaUBKTNV-1" parent="WIyWlLk6GJQsqaUBKTNV-0"/><mxCell id="Mgfd83Ul1ALBCCJsqbtd-0" value="Game " style="swimlane;fontStyle=1;align=center;verticalAlign=top;childLayout=stackLayout;horizontal=1;startSize=26;horizontalStack=0;resizeParent=1;resizeParentMax=0;resizeLast=0;collapsible=1;marginBottom=0;rounded=0;labelBackgroundColor=none;fillColor=#FAE5C7;strokeColor=#0F8B8D;fontColor=#143642;" parent="WIyWlLk6GJQsqaUBKTNV-1" vertex="1"><mxGeometry x="40" y="44" width="290" height="290" as="geometry"><mxRectangle x="30" y="20" width="80" height="30" as="alternateBounds"/></mxGeometry></mxCell><mxCell id="Mgfd83Ul1ALBCCJsqbtd-1" value="- MAX_PLAYERS: int &#10;- numPlayers: int&#10;- players: Player[4]&#10;- chairman: Player&#10;- board: ServerBoard&#10;- bucketOfPO: PrivateObjective[12]&#10;- bucketOfCO: CommonObjective[12]" style="text;strokeColor=none;fillColor=none;align=left;verticalAlign=top;spacingLeft=4;spacingRight=4;overflow=hidden;rotatable=0;points=[[0,0.5],[1,0.5]];portConstraint=eastwest;fontStyle=0;rounded=0;labelBackgroundColor=none;fontColor=#143642;" parent="Mgfd83Ul1ALBCCJsqbtd-0" vertex="1"><mxGeometry y="26" width="290" height="124" as="geometry"/></mxCell><mxCell id="Mgfd83Ul1ALBCCJsqbtd-2" value="" style="line;strokeWidth=1;fillColor=none;align=left;verticalAlign=middle;spacingTop=-1;spacingLeft=3;spacingRight=3;rotatable=0;labelPosition=right;points=[];portConstraint=eastwest;strokeColor=#0F8B8D;rounded=0;labelBackgroundColor=none;fontColor=#143642;" parent="Mgfd83Ul1ALBCCJsqbtd-0" vertex="1"><mxGeometry y="150" width="290" height="10" as="geometry"/></mxCell><mxCell id="Mgfd83Ul1ALBCCJsqbtd-3" value="+ startGame()&#10;+ endGame()&#10;+ restartGame()&#10;+ nicknameTaken(String): boolean&#10;- setCommonObjective()&#10;- setPrivateObjetive()&#10;- shuffleObjectiveList()&#10;- setActivePlayer" style="text;strokeColor=none;fillColor=none;align=left;verticalAlign=top;spacingLeft=4;spacingRight=4;overflow=hidden;rotatable=0;points=[[0,0.5],[1,0.5]];portConstraint=eastwest;rounded=0;labelBackgroundColor=none;fontColor=#143642;" parent="Mgfd83Ul1ALBCCJsqbtd-0" vertex="1"><mxGeometry y="160" width="290" height="130" as="geometry"/></mxCell><mxCell id="Mgfd83Ul1ALBCCJsqbtd-8" value="ClientBoard" style="swimlane;fontStyle=1;align=center;verticalAlign=top;childLayout=stackLayout;horizontal=1;startSize=26;horizontalStack=0;resizeParent=1;resizeParentMax=0;resizeLast=0;collapsible=1;marginBottom=0;rounded=0;labelBackgroundColor=none;fillColor=#FAE5C7;strokeColor=#0F8B8D;fontColor=#143642;" parent="WIyWlLk6GJQsqaUBKTNV-1" vertex="1"><mxGeometry x="475" y="220" width="260" height="388" as="geometry"/></mxCell><mxCell id="Mgfd83Ul1ALBCCJsqbtd-9" value="- DIM: int&#10;- gameBoard: Card[DIM][DIM]&#10;+ commonObjective_1: CommonObjective &#10;+ commonObjective_2: CommonObjective &#10;+ pointsCO_1: LinkedList&lt;Integer&gt;&#10;+ pointsCO_2: LinkedList&lt;Integer&gt;&#10;+ player: Player" style="text;strokeColor=none;fillColor=none;align=left;verticalAlign=top;spacingLeft=4;spacingRight=4;overflow=hidden;rotatable=0;points=[[0,0.5],[1,0.5]];portConstraint=eastwest;rounded=0;labelBackgroundColor=none;fontColor=#143642;" parent="Mgfd83Ul1ALBCCJsqbtd-8" vertex="1"><mxGeometry y="26" width="260" height="104" as="geometry"/></mxCell><mxCell id="Mgfd83Ul1ALBCCJsqbtd-10" value="" style="line;strokeWidth=1;fillColor=none;align=left;verticalAlign=middle;spacingTop=-1;spacingLeft=3;spacingRight=3;rotatable=0;labelPosition=right;points=[];portConstraint=eastwest;strokeColor=#0F8B8D;rounded=0;labelBackgroundColor=none;fontColor=#143642;" parent="Mgfd83Ul1ALBCCJsqbtd-8" vertex="1"><mxGeometry y="130" width="260" height="18" as="geometry"/></mxCell><mxCell id="Mgfd83Ul1ALBCCJsqbtd-11" value="+ getGameBoard(): Card[][]&#10;+ getCO_1(): CommonObjective&#10;+ getCO_2(): CommonObjective&#10;- createBoard(int)&#10;- isValidIndex(int, int): boolean&#10;- isAlone(int, int): boolean&#10;- isBoardUnplayable(): boolean&#10;- hasOneFreeSide(int, int): boolean&#10;- isCardPickable(ArrayList&lt;Integer&gt;): boolean&#10;- areCardAligned(ArrayList&lt;Integer&gt;): boolean&#10;+ createBoard(int)&#10;+ fillBoard()&#10;+ shuffleCardsBucket&#10;+ updateBoard(Board)&#10;+ sendCurrentBoard()  &#10;- draw()" style="text;strokeColor=none;fillColor=none;align=left;verticalAlign=top;spacingLeft=4;spacingRight=4;overflow=hidden;rotatable=0;points=[[0,0.5],[1,0.5]];portConstraint=eastwest;rounded=0;labelBackgroundColor=none;fontColor=#143642;" parent="Mgfd83Ul1ALBCCJsqbtd-8" vertex="1"><mxGeometry y="148" width="260" height="240" as="geometry"/></mxCell><mxCell id="Mgfd83Ul1ALBCCJsqbtd-13" value="Player" style="swimlane;fontStyle=1;align=center;verticalAlign=top;childLayout=stackLayout;horizontal=1;startSize=26;horizontalStack=0;resizeParent=1;resizeParentMax=0;resizeLast=0;collapsible=1;marginBottom=0;rounded=0;labelBackgroundColor=none;fillColor=#FAE5C7;strokeColor=#0F8B8D;fontColor=#143642;" parent="WIyWlLk6GJQsqaUBKTNV-1" vertex="1"><mxGeometry x="810" y="40" width="310" height="260" as="geometry"/></mxCell><mxCell id="Mgfd83Ul1ALBCCJsqbtd-14" value="- name: String&#10;- isChairMan: boolean&#10;- library: Library&#10;- objective: PrivateObjective&#10;+ pointsUntilNow: int&#10;- state: State&#10;- board: ClientBoard" style="text;strokeColor=none;fillColor=none;align=left;verticalAlign=top;spacingLeft=4;spacingRight=4;overflow=hidden;rotatable=0;points=[[0,0.5],[1,0.5]];portConstraint=eastwest;rounded=0;labelBackgroundColor=none;fontColor=#143642;" parent="Mgfd83Ul1ALBCCJsqbtd-13" vertex="1"><mxGeometry y="26" width="310" height="114" as="geometry"/></mxCell><mxCell id="Mgfd83Ul1ALBCCJsqbtd-15" value="" style="line;strokeWidth=1;fillColor=none;align=left;verticalAlign=middle;spacingTop=-1;spacingLeft=3;spacingRight=3;rotatable=0;labelPosition=right;points=[];portConstraint=eastwest;strokeColor=#0F8B8D;rounded=0;labelBackgroundColor=none;fontColor=#143642;" parent="Mgfd83Ul1ALBCCJsqbtd-13" vertex="1"><mxGeometry y="140" width="310" height="8" as="geometry"/></mxCell><mxCell id="Mgfd83Ul1ALBCCJsqbtd-16" value="- pickCards(ArrayList&lt;int&gt;): boolean&#10;- deployCards(ArrayList&lt;Card&gt;, int): boolean&#10;- chooseCol(int): int&#10;- chooseCardsOrder(ArrayList&lt;Card&gt;):ArrayList&lt;Card&gt;&#10;+ getState(): State&#10;+ setState(State)" style="text;strokeColor=none;fillColor=none;align=left;verticalAlign=top;spacingLeft=4;spacingRight=4;overflow=hidden;rotatable=0;points=[[0,0.5],[1,0.5]];portConstraint=eastwest;rounded=0;labelBackgroundColor=none;fontColor=#143642;" parent="Mgfd83Ul1ALBCCJsqbtd-13" vertex="1"><mxGeometry y="148" width="310" height="112" as="geometry"/></mxCell><mxCell id="W-shWDO9MT4DzFma6A6Y-0" value="Library" style="swimlane;fontStyle=1;align=center;verticalAlign=top;childLayout=stackLayout;horizontal=1;startSize=26;horizontalStack=0;resizeParent=1;resizeParentMax=0;resizeLast=0;collapsible=1;marginBottom=0;rounded=0;labelBackgroundColor=none;fillColor=#FAE5C7;strokeColor=#0F8B8D;fontColor=#143642;" parent="WIyWlLk6GJQsqaUBKTNV-1" vertex="1"><mxGeometry x="1170" y="310" width="200" height="240" as="geometry"/></mxCell><mxCell id="W-shWDO9MT4DzFma6A6Y-1" value="- ROWS: int&#10;- COLS: int&#10;- library: Card[ROWS][COLS]&#10;- visitedMatrix: int[ROWS][COLS]&#10;- countVisitedCards: int" style="text;strokeColor=none;fillColor=none;align=left;verticalAlign=top;spacingLeft=4;spacingRight=4;overflow=hidden;rotatable=0;points=[[0,0.5],[1,0.5]];portConstraint=eastwest;rounded=0;labelBackgroundColor=none;fontColor=#143642;" parent="W-shWDO9MT4DzFma6A6Y-0" vertex="1"><mxGeometry y="26" width="200" height="74" as="geometry"/></mxCell><mxCell id="W-shWDO9MT4DzFma6A6Y-2" value="" style="line;strokeWidth=1;fillColor=none;align=left;verticalAlign=middle;spacingTop=-1;spacingLeft=3;spacingRight=3;rotatable=0;labelPosition=right;points=[];portConstraint=eastwest;strokeColor=#0F8B8D;rounded=0;labelBackgroundColor=none;fontColor=#143642;" parent="W-shWDO9MT4DzFma6A6Y-0" vertex="1"><mxGeometry y="100" width="200" height="8" as="geometry"/></mxCell><mxCell id="W-shWDO9MT4DzFma6A6Y-3" value="+ isFull(): boolean&#10;+ checkCol(int, int): boolean&#10;- getFirstFreeCard(int): int&#10;+ insertCards(int, ArrayList&lt;Card&gt;)&#10;- resetVisitedMatrix()&#10;- indexNotValid(int, int): boolean&#10;- dfs(int, int, Color)&#10;+ countGroupedPoints(): int&#10;- draw()" style="text;strokeColor=none;fillColor=none;align=left;verticalAlign=top;spacingLeft=4;spacingRight=4;overflow=hidden;rotatable=0;points=[[0,0.5],[1,0.5]];portConstraint=eastwest;rounded=0;labelBackgroundColor=none;fontColor=#143642;" parent="W-shWDO9MT4DzFma6A6Y-0" vertex="1"><mxGeometry y="108" width="200" height="132" as="geometry"/></mxCell><mxCell id="W-shWDO9MT4DzFma6A6Y-10" value="Card" style="swimlane;fontStyle=1;align=center;verticalAlign=top;childLayout=stackLayout;horizontal=1;startSize=26;horizontalStack=0;resizeParent=1;resizeParentMax=0;resizeLast=0;collapsible=1;marginBottom=0;rounded=0;labelBackgroundColor=none;fillColor=#FAE5C7;strokeColor=#0F8B8D;fontColor=#143642;" parent="WIyWlLk6GJQsqaUBKTNV-1" vertex="1"><mxGeometry x="1079" y="620" width="160" height="160" as="geometry"/></mxCell><mxCell id="W-shWDO9MT4DzFma6A6Y-11" value="+ color: Color&#10;- imagePath: String&#10;- int x&#10;- int y&#10;" style="text;strokeColor=none;fillColor=none;align=left;verticalAlign=top;spacingLeft=4;spacingRight=4;overflow=hidden;rotatable=0;points=[[0,0.5],[1,0.5]];portConstraint=eastwest;rounded=0;labelBackgroundColor=none;fontColor=#143642;" parent="W-shWDO9MT4DzFma6A6Y-10" vertex="1"><mxGeometry y="26" width="160" height="64" as="geometry"/></mxCell><mxCell id="W-shWDO9MT4DzFma6A6Y-12" value="" style="line;strokeWidth=1;fillColor=none;align=left;verticalAlign=middle;spacingTop=-1;spacingLeft=3;spacingRight=3;rotatable=0;labelPosition=right;points=[];portConstraint=eastwest;strokeColor=#0F8B8D;rounded=0;labelBackgroundColor=none;fontColor=#143642;" parent="W-shWDO9MT4DzFma6A6Y-10" vertex="1"><mxGeometry y="90" width="160" height="8" as="geometry"/></mxCell><mxCell id="W-shWDO9MT4DzFma6A6Y-13" value="+ setX(int)&#10;+ setY(int)&#10;- draw()&#10;" style="text;strokeColor=none;fillColor=none;align=left;verticalAlign=top;spacingLeft=4;spacingRight=4;overflow=hidden;rotatable=0;points=[[0,0.5],[1,0.5]];portConstraint=eastwest;rounded=0;labelBackgroundColor=none;fontColor=#143642;" parent="W-shWDO9MT4DzFma6A6Y-10" vertex="1"><mxGeometry y="98" width="160" height="62" as="geometry"/></mxCell><mxCell id="W-shWDO9MT4DzFma6A6Y-14" value="&lt;&lt;enumeration&gt;&gt;&#10;Color" style="swimlane;fontStyle=0;childLayout=stackLayout;horizontal=1;startSize=40;fillColor=none;horizontalStack=0;resizeParent=1;resizeParentMax=0;resizeLast=0;collapsible=1;marginBottom=0;rounded=0;labelBackgroundColor=none;strokeColor=#0F8B8D;fontColor=#143642;" parent="WIyWlLk6GJQsqaUBKTNV-1" vertex="1"><mxGeometry x="1404" y="550" width="110" height="160" as="geometry"/></mxCell><mxCell id="W-shWDO9MT4DzFma6A6Y-15" value="GREEN&#10;WHITE&#10;YELLOW&#10;BLUE&#10;CYAN&#10;PINK&#10;EMPTY" style="text;strokeColor=none;fillColor=none;align=left;verticalAlign=top;spacingLeft=4;spacingRight=4;overflow=hidden;rotatable=0;points=[[0,0.5],[1,0.5]];portConstraint=eastwest;rounded=0;labelBackgroundColor=none;fontColor=#143642;" parent="W-shWDO9MT4DzFma6A6Y-14" vertex="1"><mxGeometry y="40" width="110" height="120" as="geometry"/></mxCell><mxCell id="W-shWDO9MT4DzFma6A6Y-20" value="" style="endArrow=open;endFill=1;endSize=12;html=1;rounded=0;labelBackgroundColor=none;strokeColor=#A8201A;fontColor=default;" parent="WIyWlLk6GJQsqaUBKTNV-1" edge="1"><mxGeometry width="160" relative="1" as="geometry"><mxPoint x="1400" y="670" as="sourcePoint"/><mxPoint x="1239" y="670" as="targetPoint"/><Array as="points"><mxPoint x="1388" y="670"/><mxPoint x="1309" y="670"/></Array></mxGeometry></mxCell><mxCell id="sbjhCUEC5wQFAyR_Rim3-13" value="constitute" style="edgeLabel;html=1;align=center;verticalAlign=middle;resizable=0;points=[];labelBackgroundColor=none;fontColor=#143642;rounded=0;" parent="W-shWDO9MT4DzFma6A6Y-20" vertex="1" connectable="0"><mxGeometry x="0.191" relative="1" as="geometry"><mxPoint y="13" as="offset"/></mxGeometry></mxCell><mxCell id="W-shWDO9MT4DzFma6A6Y-22" value="" style="endArrow=open;endFill=1;endSize=12;html=1;rounded=0;exitX=0.979;exitY=-0.009;exitDx=0;exitDy=0;exitPerimeter=0;entryX=1.008;entryY=0.565;entryDx=0;entryDy=0;labelBackgroundColor=none;strokeColor=#A8201A;fontColor=default;entryPerimeter=0;" parent="WIyWlLk6GJQsqaUBKTNV-1" source="Y6HEwSbdjoRSRPUhXtkS-57" target="Mgfd83Ul1ALBCCJsqbtd-11" edge="1"><mxGeometry width="160" relative="1" as="geometry"><mxPoint x="969" y="360" as="sourcePoint"/><mxPoint x="929" y="580" as="targetPoint"/><Array as="points"><mxPoint x="1000" y="670"/><mxPoint x="1000" y="501"/></Array></mxGeometry></mxCell><mxCell id="sbjhCUEC5wQFAyR_Rim3-4" value="withdraw from" style="edgeLabel;html=1;align=center;verticalAlign=middle;resizable=0;points=[];labelBackgroundColor=none;fontColor=#143642;rounded=0;" parent="W-shWDO9MT4DzFma6A6Y-22" vertex="1" connectable="0"><mxGeometry x="0.1582" y="2" relative="1" as="geometry"><mxPoint x="-36" y="-13" as="offset"/></mxGeometry></mxCell><mxCell id="W-shWDO9MT4DzFma6A6Y-27" value="&lt;&lt;abstract&gt;&gt;&#10;Objective" style="swimlane;fontStyle=1;align=center;verticalAlign=top;childLayout=stackLayout;horizontal=1;startSize=40;horizontalStack=0;resizeParent=1;resizeParentMax=0;resizeLast=0;collapsible=1;marginBottom=0;rounded=0;labelBackgroundColor=none;fillColor=#FAE5C7;strokeColor=#0F8B8D;fontColor=#143642;" parent="WIyWlLk6GJQsqaUBKTNV-1" vertex="1"><mxGeometry x="579" y="740" width="160" height="150" as="geometry"/></mxCell><mxCell id="W-shWDO9MT4DzFma6A6Y-28" value="# imagePath: String &#10;+ index: int &#10;- ROWS: int&#10;- COLS: int" style="text;strokeColor=none;fillColor=none;align=left;verticalAlign=top;spacingLeft=4;spacingRight=4;overflow=hidden;rotatable=0;points=[[0,0.5],[1,0.5]];portConstraint=eastwest;rounded=0;labelBackgroundColor=none;fontColor=#143642;" parent="W-shWDO9MT4DzFma6A6Y-27" vertex="1"><mxGeometry y="40" width="160" height="70" as="geometry"/></mxCell><mxCell id="W-shWDO9MT4DzFma6A6Y-29" value="" style="line;strokeWidth=1;fillColor=none;align=left;verticalAlign=middle;spacingTop=-1;spacingLeft=3;spacingRight=3;rotatable=0;labelPosition=right;points=[];portConstraint=eastwest;strokeColor=#0F8B8D;rounded=0;labelBackgroundColor=none;fontColor=#143642;" parent="W-shWDO9MT4DzFma6A6Y-27" vertex="1"><mxGeometry y="110" width="160" height="4" as="geometry"/></mxCell><mxCell id="W-shWDO9MT4DzFma6A6Y-30" value="- draw()" style="text;strokeColor=none;fillColor=none;align=left;verticalAlign=top;spacingLeft=4;spacingRight=4;overflow=hidden;rotatable=0;points=[[0,0.5],[1,0.5]];portConstraint=eastwest;rounded=0;labelBackgroundColor=none;fontColor=#143642;" parent="W-shWDO9MT4DzFma6A6Y-27" vertex="1"><mxGeometry y="114" width="160" height="36" as="geometry"/></mxCell><mxCell id="W-shWDO9MT4DzFma6A6Y-40" value="PrivateObjective" style="swimlane;fontStyle=1;align=center;verticalAlign=top;childLayout=stackLayout;horizontal=1;startSize=26;horizontalStack=0;resizeParent=1;resizeParentMax=0;resizeLast=0;collapsible=1;marginBottom=0;rounded=0;labelBackgroundColor=none;fillColor=#FAE5C7;strokeColor=#0F8B8D;fontColor=#143642;" parent="WIyWlLk6GJQsqaUBKTNV-1" vertex="1"><mxGeometry x="270" y="990" width="240" height="150" as="geometry"/></mxCell><mxCell id="W-shWDO9MT4DzFma6A6Y-41" value="- arrayOfPoints: int[7]&#10;- matrix: Color[ROWS][COLS]&#10;+ objectiveId: int" style="text;strokeColor=none;fillColor=none;align=left;verticalAlign=top;spacingLeft=4;spacingRight=4;overflow=hidden;rotatable=0;points=[[0,0.5],[1,0.5]];portConstraint=eastwest;rounded=0;labelBackgroundColor=none;fontColor=#143642;" parent="W-shWDO9MT4DzFma6A6Y-40" vertex="1"><mxGeometry y="26" width="240" height="54" as="geometry"/></mxCell><mxCell id="W-shWDO9MT4DzFma6A6Y-42" value="" style="line;strokeWidth=1;fillColor=none;align=left;verticalAlign=middle;spacingTop=-1;spacingLeft=3;spacingRight=3;rotatable=0;labelPosition=right;points=[];portConstraint=eastwest;strokeColor=#0F8B8D;rounded=0;labelBackgroundColor=none;fontColor=#143642;" parent="W-shWDO9MT4DzFma6A6Y-40" vertex="1"><mxGeometry y="80" width="240" height="8" as="geometry"/></mxCell><mxCell id="W-shWDO9MT4DzFma6A6Y-43" value="+ countPoints(Card [ROWS][COLS]): int&#10;- countMatch(Card[ROWS][COLS]): int&#10;+ draw" style="text;strokeColor=none;fillColor=none;align=left;verticalAlign=top;spacingLeft=4;spacingRight=4;overflow=hidden;rotatable=0;points=[[0,0.5],[1,0.5]];portConstraint=eastwest;rounded=0;labelBackgroundColor=none;fontColor=#143642;" parent="W-shWDO9MT4DzFma6A6Y-40" vertex="1"><mxGeometry y="88" width="240" height="62" as="geometry"/></mxCell><mxCell id="W-shWDO9MT4DzFma6A6Y-76" value="Algo_CO_2" style="swimlane;fontStyle=1;align=center;verticalAlign=top;childLayout=stackLayout;horizontal=1;startSize=26;horizontalStack=0;resizeParent=1;resizeParentMax=0;resizeLast=0;collapsible=1;marginBottom=0;rounded=0;labelBackgroundColor=none;fillColor=#FAE5C7;strokeColor=#0F8B8D;fontColor=#143642;" parent="WIyWlLk6GJQsqaUBKTNV-1" vertex="1"><mxGeometry x="1029" y="1180" width="220" height="60" as="geometry"/></mxCell><mxCell id="W-shWDO9MT4DzFma6A6Y-78" value="" style="line;strokeWidth=1;fillColor=none;align=left;verticalAlign=middle;spacingTop=-1;spacingLeft=3;spacingRight=3;rotatable=0;labelPosition=right;points=[];portConstraint=eastwest;strokeColor=#0F8B8D;rounded=0;labelBackgroundColor=none;fontColor=#143642;" parent="W-shWDO9MT4DzFma6A6Y-76" vertex="1"><mxGeometry y="26" width="220" height="8" as="geometry"/></mxCell><mxCell id="WhVy480qOBjxfBd9q4s9-7" value="+ checkMatch(Card[ROWS][COLS]): boolean" style="text;strokeColor=none;fillColor=none;align=left;verticalAlign=top;spacingLeft=4;spacingRight=4;overflow=hidden;rotatable=0;points=[[0,0.5],[1,0.5]];portConstraint=eastwest;rounded=0;labelBackgroundColor=none;fontColor=#143642;" parent="W-shWDO9MT4DzFma6A6Y-76" vertex="1"><mxGeometry y="34" width="220" height="26" as="geometry"/></mxCell><mxCell id="l9PI8_7-ofRsT48dgpmU-10" value="Algo_CO_5&#10;" style="swimlane;fontStyle=1;align=center;verticalAlign=top;childLayout=stackLayout;horizontal=1;startSize=26;horizontalStack=0;resizeParent=1;resizeParentMax=0;resizeLast=0;collapsible=1;marginBottom=0;rounded=0;labelBackgroundColor=none;fillColor=#FAE5C7;strokeColor=#0F8B8D;fontColor=#143642;" parent="WIyWlLk6GJQsqaUBKTNV-1" vertex="1"><mxGeometry x="1029" y="1300" width="220" height="60" as="geometry"/></mxCell><mxCell id="l9PI8_7-ofRsT48dgpmU-11" value="" style="line;strokeWidth=1;fillColor=none;align=left;verticalAlign=middle;spacingTop=-1;spacingLeft=3;spacingRight=3;rotatable=0;labelPosition=right;points=[];portConstraint=eastwest;strokeColor=#0F8B8D;rounded=0;labelBackgroundColor=none;fontColor=#143642;" parent="l9PI8_7-ofRsT48dgpmU-10" vertex="1"><mxGeometry y="26" width="220" height="8" as="geometry"/></mxCell><mxCell id="WhVy480qOBjxfBd9q4s9-5" value="+ checkMatch(Card[ROWS][COLS]): boolean" style="text;strokeColor=none;fillColor=none;align=left;verticalAlign=top;spacingLeft=4;spacingRight=4;overflow=hidden;rotatable=0;points=[[0,0.5],[1,0.5]];portConstraint=eastwest;rounded=0;labelBackgroundColor=none;fontColor=#143642;" parent="l9PI8_7-ofRsT48dgpmU-10" vertex="1"><mxGeometry y="34" width="220" height="26" as="geometry"/></mxCell><mxCell id="l9PI8_7-ofRsT48dgpmU-13" value="Algo_CO_8" style="swimlane;fontStyle=1;align=center;verticalAlign=top;childLayout=stackLayout;horizontal=1;startSize=26;horizontalStack=0;resizeParent=1;resizeParentMax=0;resizeLast=0;collapsible=1;marginBottom=0;rounded=0;labelBackgroundColor=none;fillColor=#FAE5C7;strokeColor=#0F8B8D;fontColor=#143642;" parent="WIyWlLk6GJQsqaUBKTNV-1" vertex="1"><mxGeometry x="1029" y="1420" width="220" height="60" as="geometry"/></mxCell><mxCell id="l9PI8_7-ofRsT48dgpmU-14" value="" style="line;strokeWidth=1;fillColor=none;align=left;verticalAlign=middle;spacingTop=-1;spacingLeft=3;spacingRight=3;rotatable=0;labelPosition=right;points=[];portConstraint=eastwest;strokeColor=#0F8B8D;rounded=0;labelBackgroundColor=none;fontColor=#143642;" parent="l9PI8_7-ofRsT48dgpmU-13" vertex="1"><mxGeometry y="26" width="220" height="8" as="geometry"/></mxCell><mxCell id="WhVy480qOBjxfBd9q4s9-2" value="+ checkMatch(Card[ROWS][COLS]): boolean" style="text;strokeColor=none;fillColor=none;align=left;verticalAlign=top;spacingLeft=4;spacingRight=4;overflow=hidden;rotatable=0;points=[[0,0.5],[1,0.5]];portConstraint=eastwest;rounded=0;labelBackgroundColor=none;fontColor=#143642;" parent="l9PI8_7-ofRsT48dgpmU-13" vertex="1"><mxGeometry y="34" width="220" height="26" as="geometry"/></mxCell><mxCell id="l9PI8_7-ofRsT48dgpmU-16" value="Algo_CO_9&#10;" style="swimlane;fontStyle=1;align=center;verticalAlign=top;childLayout=stackLayout;horizontal=1;startSize=26;horizontalStack=0;resizeParent=1;resizeParentMax=0;resizeLast=0;collapsible=1;marginBottom=0;rounded=0;labelBackgroundColor=none;fillColor=#FAE5C7;strokeColor=#0F8B8D;fontColor=#143642;" parent="WIyWlLk6GJQsqaUBKTNV-1" vertex="1"><mxGeometry x="1299" y="1420" width="220" height="60" as="geometry"/></mxCell><mxCell id="l9PI8_7-ofRsT48dgpmU-17" value="" style="line;strokeWidth=1;fillColor=none;align=left;verticalAlign=middle;spacingTop=-1;spacingLeft=3;spacingRight=3;rotatable=0;labelPosition=right;points=[];portConstraint=eastwest;strokeColor=#0F8B8D;rounded=0;labelBackgroundColor=none;fontColor=#143642;" parent="l9PI8_7-ofRsT48dgpmU-16" vertex="1"><mxGeometry y="26" width="220" height="8" as="geometry"/></mxCell><mxCell id="WhVy480qOBjxfBd9q4s9-3" value="+ checkMatch(Card[ROWS][COLS]): boolean" style="text;strokeColor=none;fillColor=none;align=left;verticalAlign=top;spacingLeft=4;spacingRight=4;overflow=hidden;rotatable=0;points=[[0,0.5],[1,0.5]];portConstraint=eastwest;rounded=0;labelBackgroundColor=none;fontColor=#143642;" parent="l9PI8_7-ofRsT48dgpmU-16" vertex="1"><mxGeometry y="34" width="220" height="26" as="geometry"/></mxCell><mxCell id="l9PI8_7-ofRsT48dgpmU-19" value="Algo_CO_6" style="swimlane;fontStyle=1;align=center;verticalAlign=top;childLayout=stackLayout;horizontal=1;startSize=26;horizontalStack=0;resizeParent=1;resizeParentMax=0;resizeLast=0;collapsible=1;marginBottom=0;rounded=0;labelBackgroundColor=none;fillColor=#FAE5C7;strokeColor=#0F8B8D;fontColor=#143642;" parent="WIyWlLk6GJQsqaUBKTNV-1" vertex="1"><mxGeometry x="1299" y="1300" width="220" height="60" as="geometry"/></mxCell><mxCell id="l9PI8_7-ofRsT48dgpmU-20" value="" style="line;strokeWidth=1;fillColor=none;align=left;verticalAlign=middle;spacingTop=-1;spacingLeft=3;spacingRight=3;rotatable=0;labelPosition=right;points=[];portConstraint=eastwest;strokeColor=#0F8B8D;rounded=0;labelBackgroundColor=none;fontColor=#143642;" parent="l9PI8_7-ofRsT48dgpmU-19" vertex="1"><mxGeometry y="26" width="220" height="8" as="geometry"/></mxCell><mxCell id="WhVy480qOBjxfBd9q4s9-4" value="+ checkMatch(Card[ROWS][COLS]): boolean" style="text;strokeColor=none;fillColor=none;align=left;verticalAlign=top;spacingLeft=4;spacingRight=4;overflow=hidden;rotatable=0;points=[[0,0.5],[1,0.5]];portConstraint=eastwest;rounded=0;labelBackgroundColor=none;fontColor=#143642;" parent="l9PI8_7-ofRsT48dgpmU-19" vertex="1"><mxGeometry y="34" width="220" height="26" as="geometry"/></mxCell><mxCell id="l9PI8_7-ofRsT48dgpmU-22" value="Algo_CO_3" style="swimlane;fontStyle=1;align=center;verticalAlign=top;childLayout=stackLayout;horizontal=1;startSize=26;horizontalStack=0;resizeParent=1;resizeParentMax=0;resizeLast=0;collapsible=1;marginBottom=0;movable=1;resizable=1;rotatable=1;deletable=1;editable=1;connectable=1;rounded=0;labelBackgroundColor=none;fillColor=#FAE5C7;strokeColor=#0F8B8D;fontColor=#143642;" parent="WIyWlLk6GJQsqaUBKTNV-1" vertex="1"><mxGeometry x="1299" y="1180" width="220" height="60" as="geometry"/></mxCell><mxCell id="l9PI8_7-ofRsT48dgpmU-23" value="" style="line;strokeWidth=1;fillColor=none;align=left;verticalAlign=middle;spacingTop=-1;spacingLeft=3;spacingRight=3;rotatable=0;labelPosition=right;points=[];portConstraint=eastwest;strokeColor=#0F8B8D;rounded=0;labelBackgroundColor=none;fontColor=#143642;" parent="l9PI8_7-ofRsT48dgpmU-22" vertex="1"><mxGeometry y="26" width="220" height="8" as="geometry"/></mxCell><mxCell id="WhVy480qOBjxfBd9q4s9-6" value="+ checkMatch(Card[ROWS][COLS]): boolean" style="text;strokeColor=none;fillColor=none;align=left;verticalAlign=top;spacingLeft=4;spacingRight=4;overflow=hidden;rotatable=0;points=[[0,0.5],[1,0.5]];portConstraint=eastwest;rounded=0;labelBackgroundColor=none;fontColor=#143642;" parent="l9PI8_7-ofRsT48dgpmU-22" vertex="1"><mxGeometry y="34" width="220" height="26" as="geometry"/></mxCell><mxCell id="l9PI8_7-ofRsT48dgpmU-28" value="Algo_CO_10" style="swimlane;fontStyle=1;align=center;verticalAlign=top;childLayout=stackLayout;horizontal=1;startSize=26;horizontalStack=0;resizeParent=1;resizeParentMax=0;resizeLast=0;collapsible=1;marginBottom=0;rounded=0;labelBackgroundColor=none;fillColor=#FAE5C7;strokeColor=#0F8B8D;fontColor=#143642;" parent="WIyWlLk6GJQsqaUBKTNV-1" vertex="1"><mxGeometry x="759" y="1540" width="220" height="60" as="geometry"/></mxCell><mxCell id="l9PI8_7-ofRsT48dgpmU-29" value="" style="line;strokeWidth=1;fillColor=none;align=left;verticalAlign=middle;spacingTop=-1;spacingLeft=3;spacingRight=3;rotatable=0;labelPosition=right;points=[];portConstraint=eastwest;strokeColor=#0F8B8D;rounded=0;labelBackgroundColor=none;fontColor=#143642;" parent="l9PI8_7-ofRsT48dgpmU-28" vertex="1"><mxGeometry y="26" width="220" height="8" as="geometry"/></mxCell><mxCell id="WhVy480qOBjxfBd9q4s9-11" value="+ checkMatch(Card[ROWS][COLS]): boolean" style="text;strokeColor=none;fillColor=none;align=left;verticalAlign=top;spacingLeft=4;spacingRight=4;overflow=hidden;rotatable=0;points=[[0,0.5],[1,0.5]];portConstraint=eastwest;rounded=0;labelBackgroundColor=none;fontColor=#143642;" parent="l9PI8_7-ofRsT48dgpmU-28" vertex="1"><mxGeometry y="34" width="220" height="26" as="geometry"/></mxCell><mxCell id="l9PI8_7-ofRsT48dgpmU-31" value="Algo_CO_7" style="swimlane;fontStyle=1;align=center;verticalAlign=top;childLayout=stackLayout;horizontal=1;startSize=26;horizontalStack=0;resizeParent=1;resizeParentMax=0;resizeLast=0;collapsible=1;marginBottom=0;rounded=0;labelBackgroundColor=none;fillColor=#FAE5C7;strokeColor=#0F8B8D;fontColor=#143642;" parent="WIyWlLk6GJQsqaUBKTNV-1" vertex="1"><mxGeometry x="759" y="1420" width="220" height="60" as="geometry"/></mxCell><mxCell id="l9PI8_7-ofRsT48dgpmU-32" value="" style="line;strokeWidth=1;fillColor=none;align=left;verticalAlign=middle;spacingTop=-1;spacingLeft=3;spacingRight=3;rotatable=0;labelPosition=right;points=[];portConstraint=eastwest;strokeColor=#0F8B8D;rounded=0;labelBackgroundColor=none;fontColor=#143642;" parent="l9PI8_7-ofRsT48dgpmU-31" vertex="1"><mxGeometry y="26" width="220" height="8" as="geometry"/></mxCell><mxCell id="WhVy480qOBjxfBd9q4s9-8" value="+ checkMatch(Card[ROWS][COLS]): boolean" style="text;strokeColor=none;fillColor=none;align=left;verticalAlign=top;spacingLeft=4;spacingRight=4;overflow=hidden;rotatable=0;points=[[0,0.5],[1,0.5]];portConstraint=eastwest;rounded=0;labelBackgroundColor=none;fontColor=#143642;" parent="l9PI8_7-ofRsT48dgpmU-31" vertex="1"><mxGeometry y="34" width="220" height="26" as="geometry"/></mxCell><mxCell id="l9PI8_7-ofRsT48dgpmU-34" value="Algo_CO_4" style="swimlane;fontStyle=1;align=center;verticalAlign=top;childLayout=stackLayout;horizontal=1;startSize=26;horizontalStack=0;resizeParent=1;resizeParentMax=0;resizeLast=0;collapsible=1;marginBottom=0;rounded=0;labelBackgroundColor=none;fillColor=#FAE5C7;strokeColor=#0F8B8D;fontColor=#143642;" parent="WIyWlLk6GJQsqaUBKTNV-1" vertex="1"><mxGeometry x="759" y="1300" width="220" height="60" as="geometry"/></mxCell><mxCell id="l9PI8_7-ofRsT48dgpmU-35" value="" style="line;strokeWidth=1;fillColor=none;align=left;verticalAlign=middle;spacingTop=-1;spacingLeft=3;spacingRight=3;rotatable=0;labelPosition=right;points=[];portConstraint=eastwest;strokeColor=#0F8B8D;rounded=0;labelBackgroundColor=none;fontColor=#143642;" parent="l9PI8_7-ofRsT48dgpmU-34" vertex="1"><mxGeometry y="26" width="220" height="8" as="geometry"/></mxCell><mxCell id="WhVy480qOBjxfBd9q4s9-1" value="+ checkMatch(Card[ROWS][COLS]): boolean" style="text;strokeColor=none;fillColor=none;align=left;verticalAlign=top;spacingLeft=4;spacingRight=4;overflow=hidden;rotatable=0;points=[[0,0.5],[1,0.5]];portConstraint=eastwest;rounded=0;labelBackgroundColor=none;fontColor=#143642;" parent="l9PI8_7-ofRsT48dgpmU-34" vertex="1"><mxGeometry y="34" width="220" height="26" as="geometry"/></mxCell><mxCell id="l9PI8_7-ofRsT48dgpmU-37" value="Algo_CO_1" style="swimlane;fontStyle=1;align=center;verticalAlign=top;childLayout=stackLayout;horizontal=1;startSize=26;horizontalStack=0;resizeParent=1;resizeParentMax=0;resizeLast=0;collapsible=1;marginBottom=0;rounded=0;labelBackgroundColor=none;fillColor=#FAE5C7;strokeColor=#0F8B8D;fontColor=#143642;" parent="WIyWlLk6GJQsqaUBKTNV-1" vertex="1"><mxGeometry x="759" y="1180" width="220" height="60" as="geometry"/></mxCell><mxCell id="l9PI8_7-ofRsT48dgpmU-38" value="" style="line;strokeWidth=1;fillColor=none;align=left;verticalAlign=middle;spacingTop=-1;spacingLeft=3;spacingRight=3;rotatable=0;labelPosition=right;points=[];portConstraint=eastwest;strokeColor=#0F8B8D;rounded=0;labelBackgroundColor=none;fontColor=#143642;" parent="l9PI8_7-ofRsT48dgpmU-37" vertex="1"><mxGeometry y="26" width="220" height="8" as="geometry"/></mxCell><mxCell id="WhVy480qOBjxfBd9q4s9-0" value="+ checkMatch(Card[ROWS][COLS]): boolean" style="text;strokeColor=none;fillColor=none;align=left;verticalAlign=top;spacingLeft=4;spacingRight=4;overflow=hidden;rotatable=0;points=[[0,0.5],[1,0.5]];portConstraint=eastwest;rounded=0;labelBackgroundColor=none;fontColor=#143642;" parent="l9PI8_7-ofRsT48dgpmU-37" vertex="1"><mxGeometry y="34" width="220" height="26" as="geometry"/></mxCell><mxCell id="l9PI8_7-ofRsT48dgpmU-40" value="Algo_CO_11" style="swimlane;fontStyle=1;align=center;verticalAlign=top;childLayout=stackLayout;horizontal=1;startSize=26;horizontalStack=0;resizeParent=1;resizeParentMax=0;resizeLast=0;collapsible=1;marginBottom=0;rounded=0;labelBackgroundColor=none;fillColor=#FAE5C7;strokeColor=#0F8B8D;fontColor=#143642;" parent="WIyWlLk6GJQsqaUBKTNV-1" vertex="1"><mxGeometry x="1029" y="1540" width="220" height="60" as="geometry"/></mxCell><mxCell id="l9PI8_7-ofRsT48dgpmU-41" value="" style="line;strokeWidth=1;fillColor=none;align=left;verticalAlign=middle;spacingTop=-1;spacingLeft=3;spacingRight=3;rotatable=0;labelPosition=right;points=[];portConstraint=eastwest;strokeColor=#0F8B8D;rounded=0;labelBackgroundColor=none;fontColor=#143642;" parent="l9PI8_7-ofRsT48dgpmU-40" vertex="1"><mxGeometry y="26" width="220" height="8" as="geometry"/></mxCell><mxCell id="WhVy480qOBjxfBd9q4s9-9" value="+ checkMatch(Card[ROWS][COLS]): boolean" style="text;strokeColor=none;fillColor=none;align=left;verticalAlign=top;spacingLeft=4;spacingRight=4;overflow=hidden;rotatable=0;points=[[0,0.5],[1,0.5]];portConstraint=eastwest;rounded=0;labelBackgroundColor=none;fontColor=#143642;" parent="l9PI8_7-ofRsT48dgpmU-40" vertex="1"><mxGeometry y="34" width="220" height="26" as="geometry"/></mxCell><mxCell id="l9PI8_7-ofRsT48dgpmU-43" value="Algo_CO_12" style="swimlane;fontStyle=1;align=center;verticalAlign=top;childLayout=stackLayout;horizontal=1;startSize=26;horizontalStack=0;resizeParent=1;resizeParentMax=0;resizeLast=0;collapsible=1;marginBottom=0;rounded=0;labelBackgroundColor=none;fillColor=#FAE5C7;strokeColor=#0F8B8D;fontColor=#143642;" parent="WIyWlLk6GJQsqaUBKTNV-1" vertex="1"><mxGeometry x="1299" y="1540" width="220" height="60" as="geometry"/></mxCell><mxCell id="l9PI8_7-ofRsT48dgpmU-44" value="" style="line;strokeWidth=1;fillColor=none;align=left;verticalAlign=middle;spacingTop=-1;spacingLeft=3;spacingRight=3;rotatable=0;labelPosition=right;points=[];portConstraint=eastwest;strokeColor=#0F8B8D;rounded=0;labelBackgroundColor=none;fontColor=#143642;" parent="l9PI8_7-ofRsT48dgpmU-43" vertex="1"><mxGeometry y="26" width="220" height="8" as="geometry"/></mxCell><mxCell id="WhVy480qOBjxfBd9q4s9-10" value="+ checkMatch(Card[ROWS][COLS]): boolean" style="text;strokeColor=none;fillColor=none;align=left;verticalAlign=top;spacingLeft=4;spacingRight=4;overflow=hidden;rotatable=0;points=[[0,0.5],[1,0.5]];portConstraint=eastwest;rounded=0;labelBackgroundColor=none;fontColor=#143642;" parent="l9PI8_7-ofRsT48dgpmU-43" vertex="1"><mxGeometry y="34" width="220" height="26" as="geometry"/></mxCell><mxCell id="l9PI8_7-ofRsT48dgpmU-46" value="" style="endArrow=block;endSize=16;endFill=0;html=1;rounded=0;fontSize=12;entryX=0.423;entryY=0.962;entryDx=0;entryDy=0;entryPerimeter=0;labelBackgroundColor=none;strokeColor=#A8201A;fontColor=default;" parent="WIyWlLk6GJQsqaUBKTNV-1" target="Y6HEwSbdjoRSRPUhXtkS-3" edge="1"><mxGeometry x="0.3426" width="160" relative="1" as="geometry"><mxPoint x="1139" y="1179.44" as="sourcePoint"/><mxPoint x="1139" y="1080" as="targetPoint"/><Array as="points"><mxPoint x="1139" y="1110"/></Array><mxPoint as="offset"/></mxGeometry></mxCell><mxCell id="l9PI8_7-ofRsT48dgpmU-64" value="" style="endArrow=none;html=1;rounded=0;fontSize=12;labelBackgroundColor=none;strokeColor=#A8201A;fontColor=default;" parent="WIyWlLk6GJQsqaUBKTNV-1" edge="1"><mxGeometry width="50" height="50" relative="1" as="geometry"><mxPoint x="999" y="1580" as="sourcePoint"/><mxPoint x="1139" y="1140" as="targetPoint"/><Array as="points"><mxPoint x="999" y="1140"/></Array></mxGeometry></mxCell><mxCell id="l9PI8_7-ofRsT48dgpmU-65" value="" style="endArrow=none;html=1;rounded=0;fontSize=12;labelBackgroundColor=none;strokeColor=#A8201A;fontColor=default;" parent="WIyWlLk6GJQsqaUBKTNV-1" edge="1"><mxGeometry width="50" height="50" relative="1" as="geometry"><mxPoint x="979" y="1580" as="sourcePoint"/><mxPoint x="1029" y="1580" as="targetPoint"/></mxGeometry></mxCell><mxCell id="l9PI8_7-ofRsT48dgpmU-66" value="" style="endArrow=none;html=1;rounded=0;fontSize=12;labelBackgroundColor=none;strokeColor=#A8201A;fontColor=default;" parent="WIyWlLk6GJQsqaUBKTNV-1" edge="1"><mxGeometry width="50" height="50" relative="1" as="geometry"><mxPoint x="979" y="1460" as="sourcePoint"/><mxPoint x="1029" y="1460" as="targetPoint"/></mxGeometry></mxCell><mxCell id="l9PI8_7-ofRsT48dgpmU-67" value="" style="endArrow=none;html=1;rounded=0;fontSize=12;labelBackgroundColor=none;strokeColor=#A8201A;fontColor=default;" parent="WIyWlLk6GJQsqaUBKTNV-1" edge="1"><mxGeometry width="50" height="50" relative="1" as="geometry"><mxPoint x="1249" y="1340" as="sourcePoint"/><mxPoint x="1299" y="1340" as="targetPoint"/></mxGeometry></mxCell><mxCell id="l9PI8_7-ofRsT48dgpmU-68" value="" style="endArrow=none;html=1;rounded=0;fontSize=12;labelBackgroundColor=none;strokeColor=#A8201A;fontColor=default;" parent="WIyWlLk6GJQsqaUBKTNV-1" edge="1"><mxGeometry width="50" height="50" relative="1" as="geometry"><mxPoint x="979" y="1340" as="sourcePoint"/><mxPoint x="1029" y="1340" as="targetPoint"/></mxGeometry></mxCell><mxCell id="l9PI8_7-ofRsT48dgpmU-69" value="" style="endArrow=none;html=1;rounded=0;fontSize=12;labelBackgroundColor=none;strokeColor=#A8201A;fontColor=default;" parent="WIyWlLk6GJQsqaUBKTNV-1" edge="1"><mxGeometry width="50" height="50" relative="1" as="geometry"><mxPoint x="1249" y="1460" as="sourcePoint"/><mxPoint x="1299" y="1460" as="targetPoint"/></mxGeometry></mxCell><mxCell id="l9PI8_7-ofRsT48dgpmU-70" value="" style="endArrow=none;html=1;rounded=0;fontSize=12;labelBackgroundColor=none;strokeColor=#A8201A;fontColor=default;" parent="WIyWlLk6GJQsqaUBKTNV-1" edge="1"><mxGeometry width="50" height="50" relative="1" as="geometry"><mxPoint x="1249" y="1580" as="sourcePoint"/><mxPoint x="1299" y="1580" as="targetPoint"/></mxGeometry></mxCell><mxCell id="l9PI8_7-ofRsT48dgpmU-71" value="" style="endArrow=none;html=1;rounded=0;fontSize=12;labelBackgroundColor=none;strokeColor=#A8201A;fontColor=default;" parent="WIyWlLk6GJQsqaUBKTNV-1" edge="1"><mxGeometry width="50" height="50" relative="1" as="geometry"><mxPoint x="1279" y="1140" as="sourcePoint"/><mxPoint x="1279" y="1580" as="targetPoint"/><Array as="points"><mxPoint x="1139" y="1140"/><mxPoint x="1279" y="1140"/></Array></mxGeometry></mxCell><mxCell id="l9PI8_7-ofRsT48dgpmU-72" value="" style="endArrow=none;html=1;rounded=0;fontSize=12;labelBackgroundColor=none;strokeColor=#A8201A;fontColor=default;" parent="WIyWlLk6GJQsqaUBKTNV-1" edge="1"><mxGeometry width="50" height="50" relative="1" as="geometry"><mxPoint x="979" y="1220" as="sourcePoint"/><mxPoint x="1029" y="1220" as="targetPoint"/></mxGeometry></mxCell><mxCell id="l9PI8_7-ofRsT48dgpmU-73" value="" style="endArrow=none;html=1;rounded=0;fontSize=12;labelBackgroundColor=none;strokeColor=#A8201A;fontColor=default;" parent="WIyWlLk6GJQsqaUBKTNV-1" edge="1"><mxGeometry width="50" height="50" relative="1" as="geometry"><mxPoint x="1249" y="1220" as="sourcePoint"/><mxPoint x="1299" y="1220" as="targetPoint"/></mxGeometry></mxCell><mxCell id="-WPbnEKzYOVtfoh_vQWN-1" value="" style="endArrow=open;html=1;endSize=12;startArrow=diamondThin;startSize=14;startFill=0;edgeStyle=orthogonalEdgeStyle;rounded=0;fontSize=12;labelBackgroundColor=none;strokeColor=#A8201A;fontColor=default;" parent="WIyWlLk6GJQsqaUBKTNV-1" edge="1"><mxGeometry x="0.125" relative="1" as="geometry"><mxPoint x="869" y="1037.58" as="sourcePoint"/><mxPoint x="1029" y="1037.58" as="targetPoint"/><mxPoint as="offset"/></mxGeometry></mxCell><mxCell id="-WPbnEKzYOVtfoh_vQWN-2" value="1" style="edgeLabel;resizable=0;html=1;align=left;verticalAlign=top;fontSize=16;rounded=0;labelBackgroundColor=none;fontColor=#143642;" parent="-WPbnEKzYOVtfoh_vQWN-1" connectable="0" vertex="1"><mxGeometry x="-1" relative="1" as="geometry"><mxPoint x="11" as="offset"/></mxGeometry></mxCell><mxCell id="-WPbnEKzYOVtfoh_vQWN-3" value="1" style="edgeLabel;resizable=0;html=1;align=right;verticalAlign=top;fontSize=16;rounded=0;labelBackgroundColor=none;fontColor=#143642;" parent="-WPbnEKzYOVtfoh_vQWN-1" connectable="0" vertex="1"><mxGeometry x="1" relative="1" as="geometry"><mxPoint x="-19" as="offset"/></mxGeometry></mxCell><mxCell id="sbjhCUEC5wQFAyR_Rim3-12" value="strategy" style="edgeLabel;html=1;align=center;verticalAlign=middle;resizable=0;points=[];labelBackgroundColor=none;fontColor=#143642;rounded=0;" parent="-WPbnEKzYOVtfoh_vQWN-1" vertex="1" connectable="0"><mxGeometry x="-0.2352" y="1" relative="1" as="geometry"><mxPoint y="-7" as="offset"/></mxGeometry></mxCell><mxCell id="-WPbnEKzYOVtfoh_vQWN-4" value="" style="endArrow=block;endSize=12;dashed=1;html=1;rounded=0;fontSize=12;edgeStyle=orthogonalEdgeStyle;exitX=0.524;exitY=-0.02;exitDx=0;exitDy=0;exitPerimeter=0;endFill=0;labelBackgroundColor=none;strokeColor=#A8201A;fontColor=default;" parent="WIyWlLk6GJQsqaUBKTNV-1" source="W-shWDO9MT4DzFma6A6Y-40" edge="1"><mxGeometry x="0.7427" width="160" relative="1" as="geometry"><mxPoint x="759" y="910" as="sourcePoint"/><mxPoint x="659" y="891" as="targetPoint"/><Array as="points"><mxPoint x="396" y="920"/><mxPoint x="659" y="920"/></Array><mxPoint as="offset"/></mxGeometry></mxCell><mxCell id="Y6HEwSbdjoRSRPUhXtkS-0" value="Strategy" style="swimlane;fontStyle=1;align=center;verticalAlign=top;childLayout=stackLayout;horizontal=1;startSize=26;horizontalStack=0;resizeParent=1;resizeParentMax=0;resizeLast=0;collapsible=1;marginBottom=0;rounded=0;labelBackgroundColor=none;fillColor=#FAE5C7;strokeColor=#0F8B8D;fontColor=#143642;" parent="WIyWlLk6GJQsqaUBKTNV-1" vertex="1"><mxGeometry x="1029" y="970" width="260" height="104" as="geometry"/></mxCell><mxCell id="Y6HEwSbdjoRSRPUhXtkS-1" value="- ROWS: int&#10;- COLS: int" style="text;strokeColor=none;fillColor=none;align=left;verticalAlign=top;spacingLeft=4;spacingRight=4;overflow=hidden;rotatable=0;points=[[0,0.5],[1,0.5]];portConstraint=eastwest;rounded=0;labelBackgroundColor=none;fontColor=#143642;" parent="Y6HEwSbdjoRSRPUhXtkS-0" vertex="1"><mxGeometry y="26" width="260" height="44" as="geometry"/></mxCell><mxCell id="Y6HEwSbdjoRSRPUhXtkS-2" value="" style="line;strokeWidth=1;fillColor=none;align=left;verticalAlign=middle;spacingTop=-1;spacingLeft=3;spacingRight=3;rotatable=0;labelPosition=right;points=[];portConstraint=eastwest;strokeColor=#0F8B8D;rounded=0;labelBackgroundColor=none;fontColor=#143642;" parent="Y6HEwSbdjoRSRPUhXtkS-0" vertex="1"><mxGeometry y="70" width="260" height="8" as="geometry"/></mxCell><mxCell id="Y6HEwSbdjoRSRPUhXtkS-3" value="+ checkMatch(Card[ROWS][COLS]): boolean" style="text;strokeColor=none;fillColor=none;align=left;verticalAlign=top;spacingLeft=4;spacingRight=4;overflow=hidden;rotatable=0;points=[[0,0.5],[1,0.5]];portConstraint=eastwest;rounded=0;labelBackgroundColor=none;fontColor=#143642;" parent="Y6HEwSbdjoRSRPUhXtkS-0" vertex="1"><mxGeometry y="78" width="260" height="26" as="geometry"/></mxCell><mxCell id="Y6HEwSbdjoRSRPUhXtkS-7" value="&lt;&lt;enumeration&gt;&gt;&#10;State" style="swimlane;fontStyle=0;childLayout=stackLayout;horizontal=1;startSize=26;fillColor=none;horizontalStack=0;resizeParent=1;resizeParentMax=0;resizeLast=0;collapsible=1;marginBottom=0;rounded=0;labelBackgroundColor=none;strokeColor=#0F8B8D;fontColor=#143642;" parent="WIyWlLk6GJQsqaUBKTNV-1" vertex="1"><mxGeometry x="1389" y="66" width="140" height="110" as="geometry"/></mxCell><mxCell id="Y6HEwSbdjoRSRPUhXtkS-8" value="ACTIVE" style="text;strokeColor=none;fillColor=none;align=left;verticalAlign=top;spacingLeft=4;spacingRight=4;overflow=hidden;rotatable=0;points=[[0,0.5],[1,0.5]];portConstraint=eastwest;rounded=0;labelBackgroundColor=none;fontColor=#143642;" parent="Y6HEwSbdjoRSRPUhXtkS-7" vertex="1"><mxGeometry y="26" width="140" height="26" as="geometry"/></mxCell><mxCell id="Y6HEwSbdjoRSRPUhXtkS-9" value="NOT_ACTIVE&#10;&#10;DISCONNECTED" style="text;strokeColor=none;fillColor=none;align=left;verticalAlign=top;spacingLeft=4;spacingRight=4;overflow=hidden;rotatable=0;points=[[0,0.5],[1,0.5]];portConstraint=eastwest;rounded=0;labelBackgroundColor=none;fontColor=#143642;" parent="Y6HEwSbdjoRSRPUhXtkS-7" vertex="1"><mxGeometry y="52" width="140" height="58" as="geometry"/></mxCell><mxCell id="Y6HEwSbdjoRSRPUhXtkS-11" value="" style="endArrow=open;endFill=1;endSize=12;html=1;rounded=0;exitX=-0.021;exitY=0.127;exitDx=0;exitDy=0;exitPerimeter=0;labelBackgroundColor=none;strokeColor=#A8201A;fontColor=default;" parent="WIyWlLk6GJQsqaUBKTNV-1" source="Y6HEwSbdjoRSRPUhXtkS-7" edge="1"><mxGeometry width="160" relative="1" as="geometry"><mxPoint x="1059" y="370" as="sourcePoint"/><mxPoint x="1120" y="80" as="targetPoint"/></mxGeometry></mxCell><mxCell id="sbjhCUEC5wQFAyR_Rim3-14" value="classificate" style="edgeLabel;html=1;align=center;verticalAlign=middle;resizable=0;points=[];labelBackgroundColor=none;fontColor=#143642;rounded=0;" parent="Y6HEwSbdjoRSRPUhXtkS-11" vertex="1" connectable="0"><mxGeometry x="0.1936" y="-2" relative="1" as="geometry"><mxPoint y="13" as="offset"/></mxGeometry></mxCell><mxCell id="Y6HEwSbdjoRSRPUhXtkS-12" value="fill" style="endArrow=diamondThin;endFill=1;endSize=24;html=1;rounded=0;labelBackgroundColor=none;strokeColor=#A8201A;fontColor=default;entryX=0.497;entryY=1.018;entryDx=0;entryDy=0;entryPerimeter=0;" parent="WIyWlLk6GJQsqaUBKTNV-1" target="Mgfd83Ul1ALBCCJsqbtd-16" edge="1"><mxGeometry x="-0.2253" y="-10" width="160" relative="1" as="geometry"><mxPoint x="1160" y="390" as="sourcePoint"/><mxPoint x="1020" y="330" as="targetPoint"/><Array as="points"><mxPoint x="1070" y="390"/><mxPoint x="964" y="390"/><mxPoint x="964" y="360"/></Array><mxPoint as="offset"/></mxGeometry></mxCell><mxCell id="Y6HEwSbdjoRSRPUhXtkS-14" value="" style="endArrow=open;endFill=1;endSize=12;html=1;rounded=0;exitX=0;exitY=0.3;exitDx=0;exitDy=0;entryX=0.144;entryY=1.015;entryDx=0;entryDy=0;entryPerimeter=0;exitPerimeter=0;labelBackgroundColor=none;strokeColor=#A8201A;fontColor=default;" parent="WIyWlLk6GJQsqaUBKTNV-1" source="W-shWDO9MT4DzFma6A6Y-28" target="Mgfd83Ul1ALBCCJsqbtd-11" edge="1"><mxGeometry width="160" relative="1" as="geometry"><mxPoint x="1059" y="560" as="sourcePoint"/><mxPoint x="310" y="621.932" as="targetPoint"/><Array as="points"><mxPoint x="510" y="800"/></Array></mxGeometry></mxCell><mxCell id="sbjhCUEC5wQFAyR_Rim3-10" value="regulate" style="edgeLabel;html=1;align=center;verticalAlign=middle;resizable=0;points=[];labelBackgroundColor=none;fontColor=#143642;rounded=0;" parent="Y6HEwSbdjoRSRPUhXtkS-14" vertex="1" connectable="0"><mxGeometry x="-0.0764" y="2" relative="1" as="geometry"><mxPoint x="-33" y="-46" as="offset"/></mxGeometry></mxCell><mxCell id="Y6HEwSbdjoRSRPUhXtkS-35" value="" style="endArrow=none;endFill=0;endSize=12;html=1;rounded=0;labelBackgroundColor=none;strokeColor=#A8201A;fontColor=default;startArrow=block;startFill=1;entryX=0.956;entryY=-0.022;entryDx=0;entryDy=0;entryPerimeter=0;exitX=0.995;exitY=0.112;exitDx=0;exitDy=0;exitPerimeter=0;" parent="WIyWlLk6GJQsqaUBKTNV-1" source="Mgfd83Ul1ALBCCJsqbtd-11" edge="1"><mxGeometry width="160" relative="1" as="geometry"><mxPoint x="735" y="395" as="sourcePoint"/><mxPoint x="809.6800000000001" y="220.00000000000003" as="targetPoint"/><Array as="points"><mxPoint x="781" y="393.66"/><mxPoint x="781" y="220.66"/></Array></mxGeometry></mxCell><mxCell id="sbjhCUEC5wQFAyR_Rim3-3" value="plays with" style="edgeLabel;html=1;align=center;verticalAlign=middle;resizable=0;points=[];labelBackgroundColor=none;fontColor=#143642;rounded=0;" parent="Y6HEwSbdjoRSRPUhXtkS-35" vertex="1" connectable="0"><mxGeometry x="0.0549" y="-2" relative="1" as="geometry"><mxPoint x="32" y="45" as="offset"/></mxGeometry></mxCell><mxCell id="Y6HEwSbdjoRSRPUhXtkS-38" value="observer" style="text;html=1;align=center;verticalAlign=middle;resizable=0;points=[];autosize=1;strokeColor=none;fillColor=none;rounded=0;labelBackgroundColor=none;fontColor=#143642;" parent="WIyWlLk6GJQsqaUBKTNV-1" vertex="1"><mxGeometry x="560" y="55" width="70" height="30" as="geometry"/></mxCell><mxCell id="Y6HEwSbdjoRSRPUhXtkS-44" value="CommonObjective" style="swimlane;fontStyle=1;align=center;verticalAlign=top;childLayout=stackLayout;horizontal=1;startSize=26;horizontalStack=0;resizeParent=1;resizeParentMax=0;resizeLast=0;collapsible=1;marginBottom=0;rounded=0;labelBackgroundColor=none;fillColor=#FAE5C7;strokeColor=#0F8B8D;fontColor=#143642;" parent="WIyWlLk6GJQsqaUBKTNV-1" vertex="1"><mxGeometry x="710" y="1010" width="160" height="86" as="geometry"/></mxCell><mxCell id="Y6HEwSbdjoRSRPUhXtkS-45" value="- algorithm: Strategy" style="text;strokeColor=none;fillColor=none;align=left;verticalAlign=top;spacingLeft=4;spacingRight=4;overflow=hidden;rotatable=0;points=[[0,0.5],[1,0.5]];portConstraint=eastwest;rounded=0;labelBackgroundColor=none;fontColor=#143642;" parent="Y6HEwSbdjoRSRPUhXtkS-44" vertex="1"><mxGeometry y="26" width="160" height="26" as="geometry"/></mxCell><mxCell id="Y6HEwSbdjoRSRPUhXtkS-46" value="" style="line;strokeWidth=1;fillColor=none;align=left;verticalAlign=middle;spacingTop=-1;spacingLeft=3;spacingRight=3;rotatable=0;labelPosition=right;points=[];portConstraint=eastwest;strokeColor=#0F8B8D;rounded=0;labelBackgroundColor=none;fontColor=#143642;" parent="Y6HEwSbdjoRSRPUhXtkS-44" vertex="1"><mxGeometry y="52" width="160" height="8" as="geometry"/></mxCell><mxCell id="Y6HEwSbdjoRSRPUhXtkS-47" value="+ draw():" style="text;strokeColor=none;fillColor=none;align=left;verticalAlign=top;spacingLeft=4;spacingRight=4;overflow=hidden;rotatable=0;points=[[0,0.5],[1,0.5]];portConstraint=eastwest;rounded=0;labelBackgroundColor=none;fontColor=#143642;" parent="Y6HEwSbdjoRSRPUhXtkS-44" vertex="1"><mxGeometry y="60" width="160" height="26" as="geometry"/></mxCell><mxCell id="Y6HEwSbdjoRSRPUhXtkS-53" value="1" style="text;html=1;align=center;verticalAlign=middle;resizable=0;points=[];autosize=1;strokeColor=none;fillColor=none;rounded=0;labelBackgroundColor=none;fontColor=#143642;" parent="WIyWlLk6GJQsqaUBKTNV-1" vertex="1"><mxGeometry x="785" y="190" width="30" height="30" as="geometry"/></mxCell><mxCell id="Y6HEwSbdjoRSRPUhXtkS-54" value="1" style="text;html=1;align=center;verticalAlign=middle;resizable=0;points=[];autosize=1;strokeColor=none;fillColor=none;rounded=0;labelBackgroundColor=none;fontColor=#143642;" parent="WIyWlLk6GJQsqaUBKTNV-1" vertex="1"><mxGeometry x="730" y="400" width="30" height="30" as="geometry"/></mxCell><mxCell id="Y6HEwSbdjoRSRPUhXtkS-55" value="1" style="text;html=1;align=center;verticalAlign=middle;resizable=0;points=[];autosize=1;strokeColor=none;fillColor=none;rounded=0;labelBackgroundColor=none;fontColor=#143642;" parent="WIyWlLk6GJQsqaUBKTNV-1" vertex="1"><mxGeometry x="970" y="310" width="30" height="30" as="geometry"/></mxCell><mxCell id="Y6HEwSbdjoRSRPUhXtkS-56" value="1" style="text;html=1;align=center;verticalAlign=middle;resizable=0;points=[];autosize=1;strokeColor=none;fillColor=none;rounded=0;labelBackgroundColor=none;fontColor=#143642;" parent="WIyWlLk6GJQsqaUBKTNV-1" vertex="1"><mxGeometry x="1124" y="350" width="30" height="30" as="geometry"/></mxCell><mxCell id="Y6HEwSbdjoRSRPUhXtkS-57" value="0:45" style="text;html=1;align=center;verticalAlign=middle;resizable=0;points=[];autosize=1;strokeColor=none;fillColor=none;rounded=0;labelBackgroundColor=none;fontColor=#143642;" parent="WIyWlLk6GJQsqaUBKTNV-1" vertex="1"><mxGeometry x="1029" y="670" width="50" height="30" as="geometry"/></mxCell><mxCell id="Y6HEwSbdjoRSRPUhXtkS-58" value="1" style="text;html=1;align=center;verticalAlign=middle;resizable=0;points=[];autosize=1;strokeColor=none;fillColor=none;rounded=0;labelBackgroundColor=none;fontColor=#143642;" parent="WIyWlLk6GJQsqaUBKTNV-1" vertex="1"><mxGeometry x="729" y="515" width="30" height="30" as="geometry"/></mxCell><mxCell id="Y6HEwSbdjoRSRPUhXtkS-61" value="1" style="text;html=1;align=center;verticalAlign=middle;resizable=0;points=[];autosize=1;strokeColor=none;fillColor=none;rounded=0;labelBackgroundColor=none;fontColor=#143642;" parent="WIyWlLk6GJQsqaUBKTNV-1" vertex="1"><mxGeometry x="520" y="620" width="30" height="30" as="geometry"/></mxCell><mxCell id="Y6HEwSbdjoRSRPUhXtkS-62" value="2" style="text;html=1;align=center;verticalAlign=middle;resizable=0;points=[];autosize=1;strokeColor=none;fillColor=none;rounded=0;labelBackgroundColor=none;fontColor=#143642;" parent="WIyWlLk6GJQsqaUBKTNV-1" vertex="1"><mxGeometry x="540" y="770" width="30" height="30" as="geometry"/></mxCell><mxCell id="Y6HEwSbdjoRSRPUhXtkS-63" value="" style="endArrow=open;endFill=1;endSize=12;html=1;rounded=0;entryX=1.006;entryY=0.33;entryDx=0;entryDy=0;entryPerimeter=0;labelBackgroundColor=none;strokeColor=#A8201A;fontColor=default;exitX=1.023;exitY=0.305;exitDx=0;exitDy=0;exitPerimeter=0;" parent="WIyWlLk6GJQsqaUBKTNV-1" source="W-shWDO9MT4DzFma6A6Y-28" target="Mgfd83Ul1ALBCCJsqbtd-16" edge="1"><mxGeometry width="160" relative="1" as="geometry"><mxPoint x="989" y="830" as="sourcePoint"/><mxPoint x="1620" y="310" as="targetPoint"/><Array as="points"><mxPoint x="1600" y="801"/><mxPoint x="1600" y="520"/><mxPoint x="1600" y="223"/></Array></mxGeometry></mxCell><mxCell id="sbjhCUEC5wQFAyR_Rim3-8" value="follow" style="edgeLabel;html=1;align=center;verticalAlign=middle;resizable=0;points=[];labelBackgroundColor=none;fontColor=#143642;rounded=0;" parent="Y6HEwSbdjoRSRPUhXtkS-63" vertex="1" connectable="0"><mxGeometry x="0.8658" y="1" relative="1" as="geometry"><mxPoint x="-1" y="-15" as="offset"/></mxGeometry></mxCell><mxCell id="Y6HEwSbdjoRSRPUhXtkS-64" value="1" style="text;html=1;align=center;verticalAlign=middle;resizable=0;points=[];autosize=1;strokeColor=none;fillColor=none;rounded=0;labelBackgroundColor=none;fontColor=#143642;" parent="WIyWlLk6GJQsqaUBKTNV-1" vertex="1"><mxGeometry x="750" y="770" width="30" height="30" as="geometry"/></mxCell><mxCell id="Y6HEwSbdjoRSRPUhXtkS-65" value="1" style="text;html=1;align=center;verticalAlign=middle;resizable=0;points=[];autosize=1;strokeColor=none;fillColor=none;rounded=0;labelBackgroundColor=none;fontColor=#143642;" parent="WIyWlLk6GJQsqaUBKTNV-1" vertex="1"><mxGeometry x="1130" y="190" width="30" height="30" as="geometry"/></mxCell><mxCell id="BPfrmEiQQp0NmsHtDl97-0" value="" style="endArrow=diamondThin;endFill=0;endSize=24;html=1;rounded=0;exitX=0.25;exitY=0;exitDx=0;exitDy=0;labelBackgroundColor=none;strokeColor=#A8201A;fontColor=default;entryX=-0.015;entryY=0.455;entryDx=0;entryDy=0;entryPerimeter=0;" parent="WIyWlLk6GJQsqaUBKTNV-1" source="W-shWDO9MT4DzFma6A6Y-10" target="W-shWDO9MT4DzFma6A6Y-3" edge="1"><mxGeometry width="160" relative="1" as="geometry"><mxPoint x="960" y="510" as="sourcePoint"/><mxPoint x="1119" y="480" as="targetPoint"/><Array as="points"><mxPoint x="1119" y="480"/></Array></mxGeometry></mxCell><mxCell id="sbjhCUEC5wQFAyR_Rim3-1" value="contains" style="edgeLabel;html=1;align=center;verticalAlign=middle;resizable=0;points=[];labelBackgroundColor=none;fontColor=#143642;rounded=0;" parent="BPfrmEiQQp0NmsHtDl97-0" vertex="1" connectable="0"><mxGeometry x="-0.3974" y="-1" relative="1" as="geometry"><mxPoint x="-30" y="-9" as="offset"/></mxGeometry></mxCell><mxCell id="BPfrmEiQQp0NmsHtDl97-2" value="30" style="text;html=1;align=center;verticalAlign=middle;resizable=0;points=[];autosize=1;strokeColor=none;fillColor=none;rounded=0;labelBackgroundColor=none;fontColor=#143642;" parent="WIyWlLk6GJQsqaUBKTNV-1" vertex="1"><mxGeometry x="1130" y="580" width="40" height="30" as="geometry"/></mxCell><mxCell id="LeQZc85mg7QLgke8wjnS-1" value="" style="endArrow=none;dashed=1;html=1;rounded=0;labelBackgroundColor=none;strokeColor=#A8201A;fontColor=default;edgeStyle=orthogonalEdgeStyle;" parent="WIyWlLk6GJQsqaUBKTNV-1" edge="1"><mxGeometry width="50" height="50" relative="1" as="geometry"><mxPoint x="800" y="1010" as="sourcePoint"/><mxPoint x="800" y="920" as="targetPoint"/></mxGeometry></mxCell><mxCell id="LeQZc85mg7QLgke8wjnS-2" value="" style="endArrow=none;dashed=1;html=1;dashPattern=1 3;strokeWidth=2;rounded=0;strokeColor=#A8201A;fontColor=default;fillColor=#FAE5C7;labelBackgroundColor=none;" parent="WIyWlLk6GJQsqaUBKTNV-1" edge="1"><mxGeometry width="50" height="50" relative="1" as="geometry"><mxPoint x="660" y="920" as="sourcePoint"/><mxPoint x="800" y="920" as="targetPoint"/></mxGeometry></mxCell><mxCell id="LeQZc85mg7QLgke8wjnS-3" value="observable" style="text;html=1;align=center;verticalAlign=middle;resizable=0;points=[];autosize=1;strokeColor=none;fillColor=none;fontColor=#143642;labelBackgroundColor=none;rounded=0;" parent="WIyWlLk6GJQsqaUBKTNV-1" vertex="1"><mxGeometry x="555" y="85" width="80" height="30" as="geometry"/></mxCell><mxCell id="_XkKGFhplbdk2fUPKM3L-0" value="&lt;span style=&quot;white-space: pre;&quot;&gt; &lt;/span&gt;Documentazione delle funzioni principali del model (deprecata)&lt;br&gt;&lt;br&gt;&amp;nbsp; + startGame()&lt;span style=&quot;white-space: pre;&quot;&gt; &lt;/span&gt;&lt;span style=&quot;white-space: pre;&quot;&gt; &lt;/span&gt;&lt;span style=&quot;white-space: pre;&quot;&gt; &lt;/span&gt;&lt;span style=&quot;white-space: pre;&quot;&gt; &lt;/span&gt;&lt;span style=&quot;white-space: pre;&quot;&gt; &lt;/span&gt;&lt;span style=&quot;white-space: pre;&quot;&gt; &lt;/span&gt;#inizia il gioco&lt;br&gt;&amp;nbsp; + endGame() &lt;span style=&quot;white-space: pre;&quot;&gt; &lt;/span&gt;&lt;span style=&quot;white-space: pre;&quot;&gt; &lt;/span&gt;&lt;span style=&quot;white-space: pre;&quot;&gt; &lt;/span&gt;&lt;span style=&quot;white-space: pre;&quot;&gt; &lt;/span&gt;&lt;span style=&quot;white-space: pre;&quot;&gt; &lt;/span&gt;&lt;span style=&quot;white-space: pre;&quot;&gt; &lt;/span&gt;#finisce il gioco&lt;br&gt;&amp;nbsp; + nicknameTaken(String): boolean &lt;span style=&quot;white-space: pre;&quot;&gt; &lt;/span&gt;&lt;span style=&quot;white-space: pre;&quot;&gt; &lt;/span&gt;#controlla se il nickname è disponibile o no&lt;br&gt;&amp;nbsp; - setCommonObjective() &lt;span style=&quot;white-space: pre;&quot;&gt; &lt;/span&gt;&lt;span style=&quot;white-space: pre;&quot;&gt; &lt;/span&gt;&lt;span style=&quot;white-space: pre;&quot;&gt; &lt;span style=&quot;white-space: pre;&quot;&gt; &lt;/span&gt;&lt;/span&gt;#set objective&lt;br&gt;&amp;nbsp; - setPrivateObjetive() &lt;span style=&quot;white-space: pre;&quot;&gt; &lt;/span&gt;&lt;span style=&quot;white-space: pre;&quot;&gt; &lt;/span&gt;&lt;span style=&quot;white-space: pre;&quot;&gt; &lt;/span&gt;&lt;span style=&quot;white-space: pre;&quot;&gt; &lt;/span&gt;&lt;span style=&quot;white-space: pre;&quot;&gt; &lt;/span&gt;#set objective&lt;br&gt;&amp;nbsp; - shuffleObjectiveList() &lt;span style=&quot;white-space: pre;&quot;&gt; &lt;/span&gt;&lt;span style=&quot;white-space: pre;&quot;&gt; &lt;/span&gt;&lt;span style=&quot;white-space: pre;&quot;&gt; &lt;/span&gt;&lt;span style=&quot;white-space: pre;&quot;&gt; &lt;/span&gt;&lt;span style=&quot;white-space: pre;&quot;&gt; &lt;/span&gt;#scelta degli objective&lt;br&gt;&lt;br&gt;&lt;br&gt;&amp;nbsp; - pickCards(ArrayList): boolean &lt;span style=&quot;white-space: pre;&quot;&gt; &lt;/span&gt;&lt;span style=&quot;white-space: pre;&quot;&gt; &lt;/span&gt;&lt;span style=&quot;white-space: pre;&quot;&gt; &lt;/span&gt;#verifica se le carte possono essre prelevate dalla board&lt;br&gt;&amp;nbsp; - deployCards(ArrayList, int) &lt;span style=&quot;white-space: pre;&quot;&gt; &lt;/span&gt;&lt;span style=&quot;white-space: pre;&quot;&gt; &lt;/span&gt;&lt;span style=&quot;white-space: pre;&quot;&gt; &lt;/span&gt;#dispone le carte nella libreria&lt;br&gt;&amp;nbsp; - chooseCol(int) &lt;span style=&quot;white-space: pre;&quot;&gt; &lt;/span&gt;&lt;span style=&quot;white-space: pre;&quot;&gt; &lt;/span&gt;&lt;span style=&quot;white-space: pre;&quot;&gt; &lt;/span&gt;&lt;span style=&quot;white-space: pre;&quot;&gt; &lt;/span&gt;&lt;span style=&quot;white-space: pre;&quot;&gt; &lt;/span&gt;&lt;span style=&quot;white-space: pre;&quot;&gt; &lt;/span&gt;#scelta della colonna della libreria&lt;br&gt;&amp;nbsp; - chooseCardsOrder(ArrayList) &lt;span style=&quot;white-space: pre;&quot;&gt; &lt;/span&gt;&lt;span style=&quot;white-space: pre;&quot;&gt; &lt;/span&gt;&lt;span style=&quot;white-space: pre;&quot;&gt; &lt;/span&gt;#scelta dell'ordine con cui inserire le carte nella libreria&lt;br&gt;&lt;br&gt;&lt;br&gt;&amp;nbsp; - createBoard(numPlayers: int) &lt;span style=&quot;white-space: pre;&quot;&gt; &lt;/span&gt;&lt;span style=&quot;white-space: pre;&quot;&gt; &lt;/span&gt;&lt;span style=&quot;white-space: pre;&quot;&gt; &lt;/span&gt;#crea la board all'inizio&lt;br&gt;&amp;nbsp; - refillBoard() &lt;span style=&quot;white-space: pre;&quot;&gt; &lt;/span&gt;&lt;span style=&quot;white-space: pre;&quot;&gt; &lt;/span&gt;&lt;span style=&quot;white-space: pre;&quot;&gt; &lt;/span&gt;&lt;span style=&quot;white-space: pre;&quot;&gt; &lt;/span&gt;&lt;span style=&quot;white-space: pre;&quot;&gt; &lt;/span&gt;&lt;span style=&quot;white-space: pre;&quot;&gt; &lt;/span&gt;#riempie la board in condizioni particolari (no tessere adiacenti)&lt;br&gt;&amp;nbsp; - isBoardUnplayable(): boolean &lt;span style=&quot;white-space: pre;&quot;&gt; &lt;/span&gt;&lt;span style=&quot;white-space: pre;&quot;&gt; &lt;/span&gt;&lt;span style=&quot;white-space: pre;&quot;&gt; &lt;/span&gt;#controlla quando la board è ingiocabile&lt;br&gt;&amp;nbsp; - isCardPickable(ArrayList): boolean &lt;span style=&quot;white-space: pre;&quot;&gt; &lt;/span&gt;&lt;span style=&quot;white-space: pre;&quot;&gt; &lt;/span&gt;#controlla se una tessera può essere presa dal tabellone o no&lt;br&gt;&amp;nbsp; - isCardNear(int, int): boolean &lt;span style=&quot;white-space: pre;&quot;&gt; &lt;/span&gt;&lt;span style=&quot;white-space: pre;&quot;&gt; &lt;/span&gt;&lt;span style=&quot;white-space: pre;&quot;&gt; &lt;/span&gt;#controlla se la tessera ha una tessera adiacente (usato in 1 e 2)&lt;br&gt;&amp;nbsp; + updateBoard(Board)&amp;nbsp;&lt;span style=&quot;white-space: pre;&quot;&gt; &lt;/span&gt;&lt;span style=&quot;white-space: pre;&quot;&gt; &lt;/span&gt;&lt;span style=&quot;white-space: pre;&quot;&gt; &lt;/span&gt;&lt;span style=&quot;white-space: pre;&quot;&gt; &lt;/span&gt;&lt;span style=&quot;white-space: pre;&quot;&gt; &lt;/span&gt;# aggiorna la board di client e server in modo che combacino tra di loro&lt;br&gt;&amp;nbsp; + sendCurrentBoard&amp;nbsp; &amp;nbsp; &amp;nbsp; &amp;nbsp; &amp;nbsp; &amp;nbsp; &amp;nbsp; &amp;nbsp; &amp;nbsp; &amp;nbsp; &amp;nbsp; &amp;nbsp; &amp;nbsp; &amp;nbsp; &amp;nbsp; &amp;nbsp; &amp;nbsp; &amp;nbsp; &amp;nbsp;# manda la stato della board corrente l server o al client, a seconda di quale board la chiama&lt;br&gt;&amp;nbsp; - isCardAligned(ArrayList) &lt;span style=&quot;white-space: pre;&quot;&gt; &lt;/span&gt;&lt;span style=&quot;white-space: pre;&quot;&gt; &lt;/span&gt;&lt;span style=&quot;white-space: pre;&quot;&gt; &lt;span style=&quot;white-space: pre;&quot;&gt; &lt;/span&gt;&lt;/span&gt;#controlla se le carte prese sono allineate (usato in 2)&lt;br&gt;&amp;nbsp; - draw()&lt;br&gt;&lt;br&gt;&lt;br&gt;&amp;nbsp; - initLibrary() &lt;span style=&quot;white-space: pre;&quot;&gt; &lt;/span&gt;&lt;span style=&quot;white-space: pre;&quot;&gt; &lt;/span&gt;&lt;span style=&quot;white-space: pre;&quot;&gt; &lt;/span&gt;&lt;span style=&quot;white-space: pre;&quot;&gt; &lt;/span&gt;&lt;span style=&quot;white-space: pre;&quot;&gt; &lt;/span&gt;&lt;span style=&quot;white-space: pre;&quot;&gt; &lt;/span&gt;&lt;span style=&quot;white-space: pre;&quot;&gt; &lt;/span&gt;#inizializza una libreria vuota&lt;br&gt;&amp;nbsp; + isFull(): boolean &lt;span style=&quot;white-space: pre;&quot;&gt; &lt;/span&gt;&lt;span style=&quot;white-space: pre;&quot;&gt; &lt;/span&gt;&lt;span style=&quot;white-space: pre;&quot;&gt; &lt;/span&gt;&lt;span style=&quot;white-space: pre;&quot;&gt; &lt;/span&gt;&lt;span style=&quot;white-space: pre;&quot;&gt; &lt;/span&gt;#controlla se la libreria è piena&lt;br&gt;&amp;nbsp; + checkCol(int, int): boolean &lt;span style=&quot;white-space: pre;&quot;&gt; &lt;/span&gt;&lt;span style=&quot;white-space: pre;&quot;&gt; &lt;/span&gt;&lt;span style=&quot;white-space: pre;&quot;&gt; &lt;/span&gt;#controlla se la colonna scelta in 3 è valida o no&lt;br&gt;&amp;nbsp; + insertCards(int, ArrayList) &lt;span style=&quot;white-space: pre;&quot;&gt; &lt;/span&gt;&lt;span style=&quot;white-space: pre;&quot;&gt; &lt;/span&gt;&lt;span style=&quot;white-space: pre;&quot;&gt; &lt;/span&gt;&lt;span style=&quot;white-space: pre;&quot;&gt; &lt;/span&gt;#inserisce le carte nella libreria&lt;br&gt;&amp;nbsp; + countGroupedPoints() &lt;span style=&quot;white-space: pre;&quot;&gt; &lt;/span&gt;&lt;span style=&quot;white-space: pre;&quot;&gt; &lt;/span&gt;&lt;span style=&quot;white-space: pre;&quot;&gt; &lt;/span&gt;&lt;span style=&quot;white-space: pre;&quot;&gt; &lt;/span&gt;#conta i punti dei gruppi a fine gioco (non sono nè PO nè CO)&lt;br&gt;&amp;nbsp; - draw()&lt;br&gt;&lt;br&gt;&lt;br&gt;&amp;nbsp; + countPoints(Card [ROWS][COLS]): int &lt;span style=&quot;white-space: pre;&quot;&gt; &lt;/span&gt;#conta i punti fatti con il proprio obbiettivo personale&lt;br&gt;&amp;nbsp; - countMatch(Card[ROWS][COLS]): int &lt;span style=&quot;white-space: pre;&quot;&gt; &lt;/span&gt;#conta le corrispondenze tra PO e libreria, usato in 4&lt;br&gt;&amp;nbsp; + draw&lt;br&gt;&lt;br&gt;&lt;br&gt;&amp;nbsp; + checkMatch(Card[6][5]): boolean &lt;span style=&quot;white-space: pre;&quot;&gt; &lt;/span&gt;&lt;span style=&quot;white-space: pre;&quot;&gt; &lt;/span&gt;#conta i match con il CO" style="whiteSpace=wrap;html=1;aspect=fixed;fontSize=16;align=left;verticalAlign=top;labelBackgroundColor=none;fillColor=#FFFFFF;strokeColor=#0F8B8D;fontColor=#143642;rounded=0;" parent="WIyWlLk6GJQsqaUBKTNV-1" vertex="1"><mxGeometry x="1880" y="44" width="1556" height="1556" as="geometry"/></mxCell><mxCell id="BPfrmEiQQp0NmsHtDl97-1" value="1" style="text;html=1;align=center;verticalAlign=middle;resizable=0;points=[];autosize=1;strokeColor=none;fillColor=none;rounded=0;labelBackgroundColor=none;fontColor=#143642;" parent="WIyWlLk6GJQsqaUBKTNV-1" vertex="1"><mxGeometry x="1049" y="485" width="200" height="30" as="geometry"/></mxCell><mxCell id="9a2x5Qapg8-03h2hcj_5-0" value="" style="endArrow=classic;startArrow=classic;html=1;rounded=0;exitX=1.003;exitY=0.121;exitDx=0;exitDy=0;exitPerimeter=0;entryX=-0.01;entryY=0.158;entryDx=0;entryDy=0;entryPerimeter=0;labelBackgroundColor=none;strokeColor=#A8201A;fontColor=default;" parent="WIyWlLk6GJQsqaUBKTNV-1" source="Mgfd83Ul1ALBCCJsqbtd-1" target="Mgfd83Ul1ALBCCJsqbtd-14" edge="1"><mxGeometry width="50" height="50" relative="1" as="geometry"><mxPoint x="700" y="420" as="sourcePoint"/><mxPoint x="750" y="370" as="targetPoint"/></mxGeometry></mxCell><mxCell id="9a2x5Qapg8-03h2hcj_5-3" value="" style="endArrow=open;endFill=1;endSize=12;html=1;rounded=0;exitX=-0.003;exitY=0.921;exitDx=0;exitDy=0;exitPerimeter=0;entryX=1;entryY=0.806;entryDx=0;entryDy=0;entryPerimeter=0;labelBackgroundColor=none;strokeColor=#A8201A;fontColor=default;" parent="WIyWlLk6GJQsqaUBKTNV-1" source="Mgfd83Ul1ALBCCJsqbtd-14" target="Mgfd83Ul1ALBCCJsqbtd-1" edge="1"><mxGeometry width="160" relative="1" as="geometry"><mxPoint x="630" y="230" as="sourcePoint"/><mxPoint x="790" y="230" as="targetPoint"/></mxGeometry></mxCell><mxCell id="9a2x5Qapg8-03h2hcj_5-6" value="plays in" style="edgeLabel;html=1;align=center;verticalAlign=middle;resizable=0;points=[];labelBackgroundColor=none;fontColor=#143642;rounded=0;" parent="9a2x5Qapg8-03h2hcj_5-3" vertex="1" connectable="0"><mxGeometry x="-0.0312" y="1" relative="1" as="geometry"><mxPoint x="2" y="-16" as="offset"/></mxGeometry></mxCell><mxCell id="9a2x5Qapg8-03h2hcj_5-4" value="2:4" style="text;html=1;align=center;verticalAlign=middle;resizable=0;points=[];autosize=1;strokeColor=none;fillColor=none;labelBackgroundColor=none;fontColor=#143642;rounded=0;" parent="WIyWlLk6GJQsqaUBKTNV-1" vertex="1"><mxGeometry x="775" y="140" width="40" height="30" as="geometry"/></mxCell><mxCell id="9a2x5Qapg8-03h2hcj_5-5" value="1" style="text;html=1;align=center;verticalAlign=middle;resizable=0;points=[];autosize=1;strokeColor=none;fillColor=none;labelBackgroundColor=none;fontColor=#143642;rounded=0;" parent="WIyWlLk6GJQsqaUBKTNV-1" vertex="1"><mxGeometry x="340" y="140" width="30" height="30" as="geometry"/></mxCell><mxCell id="88-YXf-LVn98FsWDfuD8-4" value="Intializer" style="swimlane;fontStyle=1;align=center;verticalAlign=top;childLayout=stackLayout;horizontal=1;startSize=26;horizontalStack=0;resizeParent=1;resizeParentMax=0;resizeLast=0;collapsible=1;marginBottom=0;labelBackgroundColor=none;fillColor=#FAE5C7;strokeColor=#0F8B8D;fontColor=#143642;rounded=0;" parent="WIyWlLk6GJQsqaUBKTNV-1" vertex="1"><mxGeometry x="50" y="430" width="280" height="160" as="geometry"/></mxCell><mxCell id="88-YXf-LVn98FsWDfuD8-5" value="+ ROWS: int&#10;+ COLS: int" style="text;strokeColor=none;fillColor=none;align=left;verticalAlign=top;spacingLeft=4;spacingRight=4;overflow=hidden;rotatable=0;points=[[0,0.5],[1,0.5]];portConstraint=eastwest;fontStyle=4;labelBackgroundColor=none;fontColor=#143642;rounded=0;" parent="88-YXf-LVn98FsWDfuD8-4" vertex="1"><mxGeometry y="26" width="280" height="54" as="geometry"/></mxCell><mxCell id="88-YXf-LVn98FsWDfuD8-6" value="" style="line;strokeWidth=1;fillColor=none;align=left;verticalAlign=middle;spacingTop=-1;spacingLeft=3;spacingRight=3;rotatable=0;labelPosition=right;points=[];portConstraint=eastwest;strokeColor=#0F8B8D;labelBackgroundColor=none;fontColor=#143642;rounded=0;" parent="88-YXf-LVn98FsWDfuD8-4" vertex="1"><mxGeometry y="80" width="280" height="8" as="geometry"/></mxCell><mxCell id="88-YXf-LVn98FsWDfuD8-7" value="+ setEmpty(): Card[][]&#10;+ setBucketOfPO(): ArrayList&lt;PrivateObjective&gt;&#10;+ setBucketOfCO(): ArrayList&lt;CommonObjective&gt;" style="text;strokeColor=none;fillColor=none;align=left;verticalAlign=top;spacingLeft=4;spacingRight=4;overflow=hidden;rotatable=0;points=[[0,0.5],[1,0.5]];portConstraint=eastwest;fontStyle=4;labelBackgroundColor=none;fontColor=#143642;rounded=0;" parent="88-YXf-LVn98FsWDfuD8-4" vertex="1"><mxGeometry y="88" width="280" height="72" as="geometry"/></mxCell><mxCell id="88-YXf-LVn98FsWDfuD8-8" value="exploit" style="endArrow=open;endFill=1;endSize=11;html=1;rounded=0;exitX=0.461;exitY=-0.006;exitDx=0;exitDy=0;exitPerimeter=0;labelBackgroundColor=none;strokeColor=#A8201A;fontColor=default;dashed=1;entryX=0.482;entryY=1.005;entryDx=0;entryDy=0;entryPerimeter=0;" parent="WIyWlLk6GJQsqaUBKTNV-1" source="88-YXf-LVn98FsWDfuD8-4" target="Mgfd83Ul1ALBCCJsqbtd-3" edge="1"><mxGeometry x="0.0439" y="-31" width="160" relative="1" as="geometry"><mxPoint x="470" y="420" as="sourcePoint"/><mxPoint x="180" y="340" as="targetPoint"/><mxPoint as="offset"/></mxGeometry></mxCell><mxCell id="0" value="DFSHelper" style="swimlane;fontStyle=1;align=center;verticalAlign=top;childLayout=stackLayout;horizontal=1;startSize=26;horizontalStack=0;resizeParent=1;resizeParentMax=0;resizeLast=0;collapsible=1;marginBottom=0;rounded=0;fillColor=#FAE5C7;strokeColor=#0F8B8D;fontColor=#143642;labelBackgroundColor=none;" parent="WIyWlLk6GJQsqaUBKTNV-1" vertex="1"><mxGeometry x="1460" y="950" width="210" height="160" as="geometry"/></mxCell><mxCell id="1" value="- ROWS: int&#10;- COLS: int" style="text;strokeColor=none;fillColor=none;align=left;verticalAlign=top;spacingLeft=4;spacingRight=4;overflow=hidden;rotatable=0;points=[[0,0.5],[1,0.5]];portConstraint=eastwest;rounded=0;fontColor=#143642;fontStyle=4;labelBackgroundColor=none;" parent="0" vertex="1"><mxGeometry y="26" width="210" height="54" as="geometry"/></mxCell><mxCell id="2" value="" style="line;strokeWidth=1;fillColor=none;align=left;verticalAlign=middle;spacingTop=-1;spacingLeft=3;spacingRight=3;rotatable=0;labelPosition=right;points=[];portConstraint=eastwest;strokeColor=#0F8B8D;rounded=0;fontColor=#143642;labelBackgroundColor=none;" parent="0" vertex="1"><mxGeometry y="80" width="210" height="8" as="geometry"/></mxCell><mxCell id="3" value="+ resetVisitedMatrix(int[][])&#10;+ isIndexValid(int, int): boolean&#10;+ isVisited(int, int, int[][]): boolean" style="text;strokeColor=none;fillColor=none;align=left;verticalAlign=top;spacingLeft=4;spacingRight=4;overflow=hidden;rotatable=0;points=[[0,0.5],[1,0.5]];portConstraint=eastwest;rounded=0;fontColor=#143642;fontStyle=4;labelBackgroundColor=none;" parent="0" vertex="1"><mxGeometry y="88" width="210" height="72" as="geometry"/></mxCell><mxCell id="4" value="exploit" style="endArrow=open;endFill=1;endSize=11;html=1;rounded=0;exitX=-0.021;exitY=0.798;exitDx=0;exitDy=0;exitPerimeter=0;labelBackgroundColor=none;strokeColor=#A8201A;fontColor=default;dashed=1;" parent="WIyWlLk6GJQsqaUBKTNV-1" source="1" edge="1"><mxGeometry x="-0.0877" y="-10" width="160" relative="1" as="geometry"><mxPoint x="1380" y="1064.3899999999999" as="sourcePoint"/><mxPoint x="1290" y="1020" as="targetPoint"/><mxPoint as="offset"/></mxGeometry></mxCell></root></mxGraphModel></diagram></mxfile>